<?xml version="1.0" encoding="utf-8"?>
<!-- Generator: Adobe Illustrator 22.0.0, SVG Export Plug-In . SVG Version: 6.00 Build 0)  -->
<svg version="1.1" id="Layer_1" xmlns="http://www.w3.org/2000/svg" xmlns:xlink="http://www.w3.org/1999/xlink" x="0px" y="0px"
	 viewBox="0 0 500 500" style="enable-background:new 0 0 500 500;" xml:space="preserve">
<style type="text/css">
	.st0{fill:#FDDF7F;}
	.st1{fill:#ECF4F7;}
	.st2{fill:#83E1E5;}
	.st3{fill:#1C1D21;}
	.st4{fill:#AAB1BA;}
</style>
<g>
	<path class="st0" d="M447.703,170.737c-0.491-4.428-4.446-7.666-8.901-7.666H258.322c14.611-10.134,24.186-27.017,24.186-46.145
		c0-30.999-25.13-56.129-56.129-56.129c-30.999,0-56.129,25.13-56.129,56.129c0,19.128,9.575,36.011,24.186,46.145H13.955
		c-4.455,0-8.41,3.238-8.901,7.666c-0.515,4.646,2.697,8.772,7.196,9.506l141.274,23.063c7.131,1.164,12.368,7.325,12.368,14.55
		v111.301c0,7.656-6.207,13.863-13.863,13.863h139.143c-2.803-6.158-4.304-12.895-4.304-19.79V217.857
		c0-7.225,5.237-13.386,12.368-14.55l141.274-23.063C445.006,179.509,448.219,175.383,447.703,170.737z"/>
</g>
<g>
	<path class="st4" d="M291.171,343.021H152.028h-50.865c-12.674,0-22.948,10.274-22.948,22.948V495h44.031v-95.902
		c0-6.653,5.393-12.046,12.046-12.046h129.339c3.195,0,6.259,1.269,8.518,3.528L376.569,495h62.268L300.86,357.015
		C296.776,352.931,293.518,348.179,291.171,343.021z"/>
</g>
<g>
	<polygon class="st0" points="350.669,406.828 288.397,406.828 376.569,495 438.837,495 	"/>
</g>
<g>
	<path class="st0" d="M140.361,343.021h-39.199c-12.674,0-22.948,10.274-22.948,22.948V495h44.031v-95.903
		c0-6.653,5.393-12.046,12.046-12.046h6.07V343.021z"/>
</g>
<path class="st3" d="M210.404,15.975c0-2.761,2.238-5,5-5h5.975V5c0-2.761,2.238-5,5-5s5,2.239,5,5v5.975h5.975c2.762,0,5,2.239,5,5
	s-2.238,5-5,5h-5.975v5.974c0,2.761-2.238,5-5,5s-5-2.239-5-5v-5.974h-5.975C212.643,20.975,210.404,18.736,210.404,15.975z
	 M395.737,135.109h5.975v5.975c0,2.761,2.238,5,5,5s5-2.239,5-5v-5.975h5.975c2.762,0,5-2.239,5-5s-2.238-5-5-5h-5.975v-5.975
	c0-2.761-2.238-5-5-5s-5,2.239-5,5v5.975h-5.975c-2.762,0-5,2.239-5,5S392.976,135.109,395.737,135.109z M35.071,135.109h5.975
	v5.975c0,2.761,2.238,5,5,5s5-2.239,5-5v-5.975h5.974c2.762,0,5-2.239,5-5s-2.238-5-5-5h-5.974v-5.975c0-2.761-2.238-5-5-5
	s-5,2.239-5,5v5.975h-5.975c-2.762,0-5,2.239-5,5S32.31,135.109,35.071,135.109z M250.258,338.021h-5.254c-2.762,0-5,2.239-5,5
	s2.238,5,5,5h5.254c2.762,0,5-2.239,5-5S253.02,338.021,250.258,338.021z M470.561,490h-29.652l-86.7-86.704
	c-0.002-0.002-0.004-0.005-0.007-0.007l-49.806-49.809c-3.618-3.619-6.536-7.834-8.674-12.53
	c-2.559-5.621-3.855-11.582-3.855-17.719V221.5v-3.643c0-4.799,3.438-8.843,8.174-9.616l141.273-23.063
	c7.173-1.171,12.162-7.757,11.359-14.992c-0.767-6.906-6.729-12.114-13.87-12.114H282.508c-2.762,0-5,2.239-5,5s2.238,5,5,5h156.295
	c2.004,0,3.73,1.413,3.931,3.217c0.216,1.942-1.116,3.708-3.031,4.021l-141.273,23.063c-2.371,0.387-4.579,1.181-6.563,2.3v-10.005
	c0-2.761-2.238-5-5-5s-5,2.239-5,5v27.19v3.643v101.731c0,5.05,0.727,9.997,2.135,14.79h-14.198c-2.762,0-5,2.239-5,5s2.238,5,5,5
	h18.26c2.455,4.625,5.562,8.829,9.263,12.53l41.274,41.277h-48.132l-14.783-14.783c-3.22-3.219-7.5-4.993-12.054-4.993h-118.27
	v-34.031h81.018c2.762,0,5-2.239,5-5s-2.238-5-5-5h-57.71c1.414-2.645,2.222-5.66,2.222-8.863V221.5v-3.643v-27.19
	c0-2.761-2.238-5-5-5s-5,2.239-5,5v10.005c-1.984-1.119-4.191-1.913-6.562-2.3L13.056,175.309c-1.915-0.313-3.247-2.079-3.031-4.022
	c0.199-1.803,1.926-3.216,3.931-3.216H170.25c2.762,0,5-2.239,5-5s-2.238-5-5-5H13.955c-7.143,0-13.105,5.208-13.87,12.114
	c-0.803,7.236,4.187,13.821,11.359,14.993l141.273,23.063c4.735,0.773,8.173,4.817,8.173,9.616v3.643v107.658
	c0,4.887-3.976,8.863-8.863,8.863h-50.865c-15.41,0-27.947,12.537-27.947,27.948V490H30.447c-2.762,0-5,2.239-5,5s2.238,5,5,5
	h47.768c2.762,0,5-2.239,5-5V365.969c0-9.896,8.051-17.948,17.947-17.948h34.199v34.031h-1.07c-9.399,0-17.046,7.647-17.046,17.046
	V495c0,2.761,2.238,5,5,5h145.792c2.762,0,5-2.239,5-5s-2.238-5-5-5H127.245v-90.902c0-3.885,3.161-7.046,7.046-7.046h129.34
	c1.882,0,3.651,0.733,4.982,2.064l16.246,16.245c0.001,0.002,0.003,0.003,0.004,0.005l88.171,88.17c1.951,1.953,5.119,1.952,7.07,0
	c1.953-1.953,1.953-5.118,0-7.071l-79.637-79.637h48.131l86.703,86.708c0.938,0.938,2.209,1.465,3.535,1.465h31.724
	c2.762,0,5-2.239,5-5S473.322,490,470.561,490z M271.868,241.308c0-2.761-2.238-5-5-5h-12.515c-5.529,0-10.876-1.996-15.054-5.619
	c-5.034-4.366-7.921-10.692-7.921-17.356v-17.04c0-2.761-2.238-5-5-5s-5,2.239-5,5v17.04c0,6.664-2.887,12.99-7.921,17.355
	c-4.178,3.624-9.524,5.619-15.054,5.619H185.89c-2.762,0-5,2.239-5,5s2.238,5,5,5h12.515c7.937,0,15.609-2.864,21.606-8.065
	c0.47-0.407,0.925-0.828,1.368-1.258v39.133h-12.756c-2.762,0-5,2.239-5,5s2.238,5,5,5h12.756v31.832c0,2.761,2.238,5,5,5
	s5-2.239,5-5v-31.832h12.756c2.762,0,5-2.239,5-5s-2.238-5-5-5h-12.756v-39.132c0.443,0.43,0.898,0.851,1.368,1.258
	c5.997,5.201,13.67,8.065,21.606,8.065h12.515C269.63,246.308,271.868,244.069,271.868,241.308z M165.25,116.927
	c0-33.707,27.422-61.129,61.129-61.129s61.129,27.422,61.129,61.129c0,33.707-27.422,61.129-61.129,61.129
	S165.25,150.634,165.25,116.927z M175.25,116.927c0,28.193,22.937,51.129,51.129,51.129s51.129-22.937,51.129-51.129
	s-22.937-51.129-51.129-51.129S175.25,88.735,175.25,116.927z M294.141,490h-5.744c-2.762,0-5,2.239-5,5s2.238,5,5,5h5.744
	c2.762,0,5-2.239,5-5S296.902,490,294.141,490z M495,490h-5.446c-2.762,0-5,2.239-5,5s2.238,5,5,5H495c2.762,0,5-2.239,5-5
	S497.762,490,495,490z M9.674,490H5c-2.762,0-5,2.239-5,5s2.238,5,5,5h4.674c2.762,0,5-2.239,5-5S12.436,490,9.674,490z"/>
</svg>
